<?xml version="1.0" encoding="UTF-8"?>
<!-- Created with Inkscape (http://www.inkscape.org/) -->
<svg width="645" height="70" version="1.1" viewBox="0 0 170.66 18.521" xml:space="preserve" xmlns="http://www.w3.org/2000/svg" xmlns:xhtml="http://www.w3.org/1999/xhtml" xmlns:xlink="http://www.w3.org/1999/xlink"><defs><linearGradient id="linearGradient3571" x1="45.39" x2="111.54" y1="141.53" y2="207.67" gradientTransform="translate(-5.1815 -.0040807)" gradientUnits="userSpaceOnUse"><stop stop-color="#0ecd71" offset="0"/><stop stop-color="#040273" offset="1"/></linearGradient><clipPath id="b-1"><path transform="rotate(15 -244.97 440.63)" d="m0 0h83.976v106.37h-83.976z" fill="#fff"/></clipPath><mask id="a-9" x="0" y="0" width="267" height="344" maskUnits="userSpaceOnUse"><path d="m0.192 133.02c0-83.135 67.618-133.02 133.02-133.02 65.399 0 133.02 49.881 133.02 133.02 0 79.81-119.72 201.74-125.26 207.28-2.217 2.217-4.434 3.325-7.759 3.325-3.326 0-5.543-1.108-7.76-3.325-5.543-5.543-125.26-128.58-125.26-207.28z" fill="#fff"/></mask></defs><g transform="translate(-14.353 -138.06)"><rect x="40.209" y="141.52" width="54.021" height="14.065" fill="url(#linearGradient3571)"/></g><g transform="translate(-14.353 -138.06)"><path d="m14.353 138.06v18.455l170.66 0.0657v-18.521zm45.481 3.6546c1.09 0 2.0052 0.28639 2.7146 0.86248 0.70284 0.56693 1.1861 1.334 1.4438 2.2794l0.05478 0.19948-1.3426 0.34984-0.05064-0.19585c-0.18461-0.68761-0.50906-1.2179-0.97565-1.6108-0.45873-0.38624-1.0629-0.58446-1.8438-0.58446-0.67986 0-1.2251 0.15434-1.6567 0.45165-0.43751 0.30138-0.76842 0.71833-0.99529 1.2686h0.0021c-0.22403 0.54913-0.3432 1.1896-0.3514 1.9275-0.0041 0.7371 0.10823 1.376 0.33176 1.9239 0.22666 0.54585 0.55689 0.96265 0.99942 1.2687 0.44051 0.29764 0.99106 0.45165 1.6702 0.45165 0.78018 0 1.3832-0.19895 1.8417-0.58446 0.46736-0.39745 0.79316-0.92736 0.97772-1.6108l0.05271-0.19585 1.3405 0.35037-0.05478 0.19895c-0.25772 0.94536-0.73932 1.7146-1.4418 2.2856l-0.0021 2e-3c-0.70963 0.57238-1.6236 0.85421-2.714 0.85421-0.93438 0-1.7401-0.20888-2.4004-0.63356h-0.0021c-0.65499-0.42569-1.1547-1.0189-1.4888-1.7632-0.33331-0.74263-0.49558-1.5944-0.49558-2.5492 0-0.95476 0.16227-1.8071 0.49558-2.5497 0.33373-0.74354 0.83452-1.334 1.4888-1.7554 0.66036-0.42918 1.4672-0.6413 2.4019-0.6413zm-18.891 0.18965h3.7109c0.53705 0 1.0179 0.11249 1.4304 0.3421 0.40743 0.22679 0.73158 0.53929 0.96015 0.92862 0.22888 0.38526 0.34313 0.81726 0.34313 1.2806 0 0.52528-0.1418 1.0062-0.4253 1.4232h-0.0021c-0.16249 0.23634-0.42911 0.34082-0.65732 0.49661 0.35318 0.18022 0.73871 0.32647 0.97772 0.62581 0.36592 0.4583 0.54984 1.0209 0.54984 1.6578 0 0.55561-0.11939 1.0494-0.36277 1.4681-0.24205 0.41183-0.58893 0.73546-1.0242 0.95808-0.43625 0.2231-0.93819 0.33228-1.4986 0.33228h-4.0018zm6.7257 0h7.6822v1.3002h-3.1729v8.2129h-1.3364v-8.2129h-3.1729zm19.836 0h1.1844l3.4422 7.3763 3.4225-7.3763h1.1979v9.5054h-1.2919v-6.2932l-2.9011 6.3009h-0.86041l-2.8959-6.3009v6.3009h-1.2976zm-22.856 1.2878-2.3647 5.1e-4v2.5947h2.3647c0.25966 0 0.4872-0.058 0.6966-0.17209 0.20964-0.11845 0.37133-0.27397 0.49196-0.47542v-2e-3c0.12206-0.19785 0.185-0.42482 0.185-0.69608 0-0.38244-0.12175-0.66406-0.38034-0.89762h-0.0021v-2e-3c-0.25551-0.23407-0.57262-0.34985-0.99115-0.34985zm36.322 0.7984c0.64753 0 1.211 0.12424 1.68 0.3793 0.47374 0.25103 0.82036 0.62945 1.0185 1.1126l0.0021 2e-3c0.09216 0.21818 0.15088 0.45946 0.17777 0.71986 0.02597 0.25162 0.03876 0.50667 0.03876 0.76636v4.4478h-1.2351v-0.95447c-0.18138 0.21158-0.2874 0.50129-0.52503 0.65113-0.52416 0.3305-1.1514 0.49299-1.8635 0.49299-0.53768 0-1.0034-0.0985-1.3891-0.30334-0.37385-0.20099-0.66602-0.47597-0.85835-0.81907-0.1892-0.33753-0.28525-0.71147-0.28525-1.1064 0-0.39795 0.08051-0.75065 0.24805-1.048 0.16682-0.29251 0.3947-0.53596 0.67696-0.72141h0.0021v-2e-3c0.28113-0.18173 0.60278-0.31753 0.9617-0.41083h0.0021v-2e-3c0.35129-0.0859 0.73846-0.15924 1.1591-0.22324 0.42271-0.0678 0.83503-0.12548 1.2371-0.17208 0.18032-0.0227 0.31243-0.0429 0.47232-0.0646-0.03936-0.42323-0.08752-0.83532-0.26148-1.0418-0.21984-0.26088-0.62554-0.41445-1.2702-0.41445-0.43625 0-0.78907 0.0969-1.0754 0.28319-0.2733 0.18062-0.47087 0.4637-0.59118 0.88366l-0.05633 0.19793-1.2878-0.37931 0.04858-0.19172c0.1656-0.65024 0.50866-1.1719 1.0185-1.5369 0.51293-0.36709 1.1716-0.54518 1.9549-0.54518zm7.4517 0c0.65698 0 1.2389 0.17012 1.7213 0.51211 0.47705 0.3382 0.84185 0.80099 1.0904 1.3746 0.25244 0.57243 0.37672 1.213 0.37672 1.9156 0 0.70672-0.1242 1.3493-0.37672 1.9218-0.25284 0.57333-0.62378 1.0383-1.1043 1.3803-0.487 0.34202-1.0752 0.51212-1.7441 0.51212-0.66095 0-1.2404-0.17049-1.7115-0.51418-0.0964-0.0713-0.13188-0.20562-0.21859-0.28732v3.6463h-1.3426v-10.272h1.2413v0.74672c0.12518-0.12979 0.18794-0.32482 0.33538-0.42994 0.4757-0.33914 1.0603-0.50643 1.7327-0.50643zm-0.15193 1.2743v5.2e-4c-0.44144 0-0.78767 0.10633-1.0635 0.3085-0.27775 0.20684-0.4878 0.49116-0.632 0.87385v2e-3c-0.14506 0.38103-0.22066 0.8277-0.22066 1.3431 0 0.50663 0.07489 0.95228 0.22066 1.3431 0.14407 0.38234 0.35506 0.67067 0.63769 0.88212 0.2754 0.20603 0.62686 0.31471 1.0775 0.31471 0.44098 0 0.78682-0.10856 1.063-0.31885 0.28348-0.21587 0.49405-0.50679 0.6382-0.88935v-2e-3c0.14971-0.39077 0.22634-0.83231 0.22634-1.3296 0-0.49348-0.07285-0.93303-0.21859-1.3198-0.14394-0.38199-0.35848-0.67125-0.64596-0.88728v-2e-3c-0.27512-0.2095-0.62812-0.31884-1.0826-0.31884zm-45.986 1.8087v3.0443h2.4329c0.34618 0 0.6497-0.0625 0.91519-0.18035 0.26402-0.12144 0.46264-0.28383 0.60875-0.49609v-2e-3h0.0021c0.14628-0.20735 0.22066-0.45693 0.22066-0.76843 0-0.30563-0.06951-0.56994-0.20671-0.8077-0.13887-0.24069-0.32352-0.42725-0.56431-0.57051l-0.0021-2e-3h-0.0016c-0.23171-0.14371-0.49251-0.21704-0.80047-0.21704zm40.271 0.87385c-0.14993 0.0183-0.28492 0.0366-0.44493 0.0548-0.36345 0.0418-0.72198 0.0902-1.0769 0.14469-0.34748 0.0539-0.6587 0.11802-0.93638 0.19172-0.17701 0.0503-0.34846 0.12168-0.51521 0.21498h-0.0042c-0.15397 0.0825-0.27702 0.19228-0.37672 0.33073l-0.0015 2e-3c-0.08525 0.12488-0.13074 0.28209-0.13074 0.493 0 0.16473 0.03799 0.32164 0.12092 0.48059 0.08017 0.14619 0.20559 0.27116 0.39584 0.37775h0.0021c0.18162 0.0992 0.442 0.15813 0.78445 0.15813 0.4088 0 0.75613-0.0724 1.048-0.21291 0.29619-0.1426 0.52723-0.33425 0.70435-0.57515 0.17974-0.24906 0.29541-0.52613 0.34933-0.83871l0.0015-6e-3v-4e-3c0.04676-0.20302 0.07403-0.42949 0.07803-0.67851 1e-3 -0.0596 0.0013-0.0799 0.0021-0.13281z" fill="#e4ebec" stroke-width=".384"/></g><g transform="translate(-14.353 -138.06)">
		 <path d="m20.12 145.7c0-3.9738 3.3974-6.3582 6.6833-6.3582 3.2859 0 6.6832 2.3843 6.6832 6.3582 0 3.8149-6.0149 9.6432-6.2933 9.9082-0.11139 0.10596-0.22278 0.15894-0.38984 0.15894-0.16711 0-0.2785-0.053-0.38989-0.15894-0.2785-0.26497-6.2934-6.1463-6.2934-9.9082z" fill="#0b9072" stroke-width=".045835"/><g transform="matrix(.050243 0 0 .0478 20.111 139.34)" mask="url(#a-9)" stroke-width=".90542"><path d="m132.37 171.82 93.032 93.032-94.525 94.525-93.032-93.032z" fill="#0099af"/><path d="m135.54 179.69 98.012 91.011c78.409-97.078 54.451-191.36 32.671-226.36z" fill="#051173"/><path d="m36.691 247.69 205.94-205.94 27.095 27.095-205.94 205.94z" fill="#53c5d5"/><path d="m153.3 172.69 84.884 84.884-27.095 27.095-84.884-84.884z" fill="#53c5d5"/></g><ellipse cx="26.804" cy="146.23" rx="3.9865" ry="3.9865" fill="#e4ebec" stroke-width=".045835"/><g transform="matrix(.050243 0 0 .0478 20.111 139.34)" clip-path="url(#b-1)" stroke-width=".93528"><path d="m157.26 143.33c6.249-1.226 10.982-5.066 12.302-13.224 1.821-11.143-6.946-17.392-18.966-21.723l4.031-15.053-9.528-2.554-3.93 14.656a410.53 410.53 0 0 0-7.633-1.941l3.951-14.752-9.52-2.552-4.034 15.049a326.21 326.21 0 0 1-6.088-1.547l0.011-0.045-13.141-3.526-2.62 9.784s7.071 1.758 6.922 1.851c3.857 1.036 4.54 3.529 4.403 5.486l-4.591 17.148-6.454 24.088c-0.483 1.121-1.698 2.795-4.396 2.075 0.095 0.137-6.931-1.858-6.931-1.858l-4.822 10.435 12.398 3.322c2.309 0.621 4.57 1.264 6.792 1.878l-4.071 15.225 9.517 2.552 4.034-15.064c2.604 0.753 5.126 1.453 7.595 2.111l-4.02 14.992 9.528 2.553 4.078-15.196c16.253 3.407 28.505 2.531 33.775-11.562 4.245-11.346-0.061-18.072-8.592-22.608zm-26.382-29.008c5.374 1.44 22.716 4.323 19.825 15.121-2.776 10.35-19.347 4.614-24.727 3.173zm-12.785 47.698 5.409-20.169c6.457 1.728 27.186 5.369 24.009 17.237-3.047 11.382-22.956 4.658-29.418 2.932z" fill="#0b9072" stroke-width=".90542"/></g></g>
</svg>
