<?xml version="1.0" encoding="UTF-8" standalone="no"?>
<!-- Created with Inkscape (http://www.inkscape.org/) -->

<svg
   width="13.366423mm"
   height="16.425249mm"
   viewBox="0 0 13.366423 16.425249"
   version="1.1"
   id="svg1"
   xmlns="http://www.w3.org/2000/svg"
   xmlns:svg="http://www.w3.org/2000/svg">
  <defs
     id="defs1">
    <mask
       id="a-9"
       maskUnits="userSpaceOnUse"
       x="0"
       y="0"
       width="267"
       height="344">
      <path
         d="M 0.192,133.016 C 0.192,49.881 67.81,0 133.21,0 c 65.399,0 133.016,49.881 133.016,133.016 0,79.81 -119.715,201.741 -125.257,207.284 -2.217,2.217 -4.434,3.325 -7.759,3.325 -3.326,0 -5.543,-1.108 -7.76,-3.325 C 119.907,334.757 0.192,211.717 0.192,133.016 Z"
         fill="#0b9072"
         id="path4-4" />
    </mask>
    <clipPath
       id="b-1">
      <path
         fill="#ffffff"
         transform="rotate(15,-244.968,440.629)"
         d="M 0,0 H 83.976 V 106.37 H 0 Z"
         id="path23-4" />
    </clipPath>
  </defs>
  <g
     id="layer1"
     transform="translate(-56.356247,-40.481251)">
    <g
       id="g2"
       transform="translate(36.2358,-98.86332)">
      <path
         d="m 20.12045,145.70273 c 0,-3.97385 3.39735,-6.35816 6.683261,-6.35816 3.285861,0 6.683161,2.38431 6.683161,6.35816 0,3.8149 -6.014876,9.64318 -6.293324,9.90815 -0.111392,0.10596 -0.222777,0.15894 -0.389837,0.15894 -0.167108,0 -0.278499,-0.053 -0.389889,-0.15894 -0.278497,-0.26497 -6.293372,-6.14626 -6.293372,-9.90815 z"
         fill="#0b9072"
         id="path2"
         style="stroke-width:0.0458346" />
      <g
         mask="url(#a-9)"
         id="g15"
         transform="matrix(0.05024327,0,0,0.04779991,20.110804,139.34457)"
         style="stroke-width:0.935278">
        <path
           fill="#0099af"
           d="m 132.369,171.819 93.032,93.032 -94.525,94.525 -93.032,-93.032 z"
           id="path7"
           style="stroke-width:0.905415" />
        <path
           d="m 135.541,179.688 98.012,91.011 c 78.409,-97.078 54.451,-191.356 32.671,-226.36 z"
           fill="#051173"
           id="path9"
           style="stroke-width:0.905415" />
        <path
           fill="#53c5d5"
           d="M 36.691,247.691 242.633,41.75 269.728,68.845 63.786,274.786 Z"
           id="path11"
           style="stroke-width:0.905415" />
        <path
           fill="#53c5d5"
           d="m 153.3,172.688 84.884,84.884 -27.095,27.095 -84.884,-84.884 z"
           id="path13"
           style="stroke-width:0.905415" />
      </g>
      <ellipse
         cx="26.803661"
         cy="146.23125"
         fill="#e4ebec"
         id="circle17"
         style="stroke-width:0.0458346"
         rx="3.9864531"
         ry="3.9864771" />
      <g
         clip-path="url(#b-1)"
         id="g21"
         transform="matrix(0.05024327,0,0,0.04779991,20.110804,139.34457)"
         style="stroke-width:0.935278">
        <path
           d="m 157.264,143.33 c 6.249,-1.226 10.982,-5.066 12.302,-13.224 1.821,-11.143 -6.946,-17.392 -18.966,-21.723 l 4.031,-15.053 -9.528,-2.554 -3.93,14.656 a 410.534,410.534 0 0 0 -7.633,-1.941 l 3.951,-14.752 -9.52,-2.552 -4.034,15.049 a 326.208,326.208 0 0 1 -6.088,-1.547 l 0.011,-0.045 -13.141,-3.526 -2.62,9.784 c 0,0 7.071,1.758 6.922,1.851 3.857,1.036 4.54,3.529 4.403,5.486 l -4.591,17.148 -6.454,24.088 c -0.483,1.121 -1.698,2.795 -4.396,2.075 0.095,0.137 -6.931,-1.858 -6.931,-1.858 l -4.822,10.435 12.398,3.322 c 2.309,0.621 4.57,1.264 6.792,1.878 l -4.071,15.225 9.517,2.552 4.034,-15.064 c 2.604,0.753 5.126,1.453 7.595,2.111 l -4.02,14.992 9.528,2.553 4.078,-15.196 c 16.253,3.407 28.505,2.531 33.775,-11.562 4.245,-11.346 -0.061,-18.072 -8.592,-22.608 z m -26.382,-29.008 c 5.374,1.44 22.716,4.323 19.825,15.121 -2.776,10.35 -19.347,4.614 -24.727,3.173 z m -12.785,47.698 5.409,-20.169 c 6.457,1.728 27.186,5.369 24.009,17.237 -3.047,11.382 -22.956,4.658 -29.418,2.932 z"
           fill="#0b9072"
           id="path19"
           style="stroke-width:0.905415" />
      </g>
    </g>
  </g>
</svg>
